<?xml version="1.0" encoding="utf-8"?>
<!-- Generator: Adobe Illustrator 23.0.5, SVG Export Plug-In . SVG Version: 6.00 Build 0)  -->
<svg version="1.1" id="Layer_1" xmlns="http://www.w3.org/2000/svg" xmlns:xlink="http://www.w3.org/1999/xlink" x="0px" y="0px"
	 viewBox="0 0 150 150" style="enable-background:new 0 0 150 150;" xml:space="preserve">
<path d="M79.79,129.94c-3.6-0.11-7.21-0.12-10.8-0.36c-4.37-0.29-8.76-0.61-13.1-1.19c-11.67-1.58-22.88-4.56-32.79-11.29
	c-6.15-4.17-10.76-9.72-14.47-16.09C5.54,95.69,3.05,90.13,1.71,84.1c-2.96-13.26-0.14-25.28,8.18-35.91
	C18.3,37.43,29.09,29.8,41.96,25.23c11.08-3.94,22.57-5.28,34.29-4.86c11.62,0.41,22.91,2.52,33.79,6.67
	c14,5.33,25.33,14.1,33.74,26.51c3.63,5.35,5.7,11.31,5.71,17.85c0,5.67-1.81,10.81-4.68,15.66c-4.41,7.45-11.17,11.69-19.12,14.38
	c-6.47,2.19-13.13,3.57-19.93,4.05c-6.4,0.45-12.82,0.67-19.24,0.81c-5.23,0.12-10.37-0.65-15.35-2.35
	c-0.41-0.14-0.92-0.02-1.62-0.02c-1.47-1.24-3.49-1.84-5.72-1.87c-1.43-0.02-2.94,0.41-4.25-0.58c-0.17-0.13-0.44-0.22-0.5-0.39
	c-0.38-1.1-1.36-1.13-2.24-1.26c-4.65-0.71-9.29-1.44-13.95-2.03c-2.79-0.35-5.61-0.47-8.42-0.69c-0.12-0.01-0.23-0.04-0.35-0.29
	c0.37-0.02,0.73-0.06,1.1-0.07c6.64-0.2,13.27-0.07,19.87,0.82c1.2,0.16,2.39,0.41,3.59,0.56c0.34,0.04,0.88-0.01,1.03-0.23
	c1.94-2.66,4.78-4.13,7.5-5.74c2.05-1.21,4.14-2.37,6.19-3.59c0.32-0.19,0.67-0.59,0.7-0.92c0.02-0.25-0.41-0.68-0.72-0.78
	c-1.97-0.64-3.58-1.78-5.19-3.06c-1.43-1.14-3.19-0.76-4.78-0.03c-2.29,1.05-4.53,2.24-6.86,3.18c-1.02,0.41-2.23,0.46-3.35,0.48
	c-1.91,0.05-3.62,0.6-5.28,1.5c-3.06,1.67-6.15,3.28-9.38,4.79c0.35-0.49,0.71-0.98,1.06-1.47c2.57-3.56,4.73-7.34,6.28-11.47
	c1.7-4.53,4.87-7.77,9.21-9.95c5.54-2.8,10.79-6.09,15.68-9.94c5.5-4.33,9.92-9.54,13.31-15.71c2.32-4.23,5.03-8.28,7.83-12.22
	c1.16-1.63,2.99-2.8,4.56-4.11c0.59-0.5,1.16-0.34,1.73,0.29c1.17,1.29,2.39,2.56,3.72,3.69c0.99,0.84,2.16,1.47,3.26,2.17
	c0.45,0.29,0.96,0.49,1.38,0.81c0.92,0.7,1.15,1.58,0.5,2.53c-0.6,0.87-1.37,1.63-2.16,2.34c-1.17,1.05-2.4,2.02-3.63,3
	c-3.81,3.05-5.7,6.99-5.68,11.89c0.01,3.58-0.36,7.12-1.4,10.56c-1.83,6.03-5.7,10.51-10.78,14.06c-0.84,0.59-1.71,1.14-2.62,1.74
	c1.42,1.87,2.79,3.73,4.21,5.55c1.02,1.31,0.99,2.06-0.39,3.12c-1.29,1-2.7,1.86-3.99,2.86c-2.22,1.73-4.38,3.53-6.5,5.25
	c0.29,1.28,0.56,2.44,0.86,3.73c2.82,0.87,5.88,1.29,8.98,1.29c5.32-0.01,10.65,0.09,15.95-0.23c8.91-0.53,17.72-1.81,26.14-4.94
	c4.78-1.78,9.32-4.04,12.78-7.92c5.31-5.96,8.46-12.83,7.95-21c-0.31-4.97-1.99-9.55-4.67-13.7c-7.02-10.86-16.57-18.84-28.24-24.27
	c-7.85-3.66-16.16-5.86-24.71-7.21c-7.08-1.12-14.2-1.54-21.33-1.23c-12.27,0.53-24.11,2.97-34.94,9.01
	C23.09,37.71,14.62,44.7,8.71,54.42C4.68,61.04,2.74,68.25,3.04,76c0.29,7.2,2.41,13.93,5.7,20.3c2.98,5.76,6.44,11.17,11.33,15.55
	c5.7,5.11,12.37,8.46,19.58,10.81c6.17,2.01,12.51,3.35,18.93,4.26c7.05,1,14.11,1.94,21.16,2.9
	C79.76,129.86,79.78,129.9,79.79,129.94z M67.15,100.22c0.23-0.11,0.56-0.23,0.85-0.41c4.24-2.59,8.16-5.59,11.65-9.13
	c1.85-1.88,2.38-2.63-0.99-4.08c-0.63-0.27-1.13-0.03-1.04,0.55c0.3,2.04-0.87,2.78-2.55,3.17c-0.07,0.02-0.12,0.07-0.19,0.1
	c-3.1,1.8-6.24,3.55-9.28,5.45c-0.78,0.49-1.34,1.42-1.84,2.25c-0.16,0.26,0.12,1.12,0.4,1.24C65.08,99.75,66.07,99.93,67.15,100.22
	z"/>
<path d="M96.18,108.33c1.39,0,2.48,0,3.57,0c0.06,0.07,0.11,0.14,0.17,0.21c-0.28,0.23-0.55,0.46-0.93,0.77
	c0.55,1.76,1.13,3.61,1.82,5.8c0.67-2.01,1.26-3.71,1.79-5.43c0.06-0.18-0.23-0.49-0.39-0.72c-0.13-0.18-0.31-0.31-0.62-0.62
	c1.11,0,1.94,0,2.96,0c-0.43,0.56-0.85,0.95-1.07,1.43c-0.4,0.87-0.68,1.79-1,2.69c-0.55,1.54-1.08,3.08-1.63,4.62
	c-0.08,0.21-0.2,0.41-0.47,0.95c-0.83-2.34-1.56-4.38-2.33-6.56c-0.79,2.19-1.53,4.22-2.27,6.26c-0.11-0.01-0.23-0.01-0.34-0.02
	c-0.46-1.32-0.93-2.63-1.39-3.95c-0.42-1.21-0.8-2.43-1.29-3.61c-0.2-0.47-0.65-0.83-0.97-1.26c-0.11-0.15-0.15-0.34-0.26-0.59
	c1.2,0,2.29,0,3.72,0c-0.45,0.42-0.7,0.65-1.07,0.99c0.55,1.77,1.12,3.65,1.79,5.82c0.59-1.75,1.16-3.19,1.52-4.68
	c0.1-0.42-0.41-0.99-0.68-1.48C96.71,108.8,96.51,108.66,96.18,108.33z"/>
<path d="M30.05,108.28c1.38,0,2.76-0.03,4.14,0.01c1.18,0.03,2.31,0.25,2.83,1.5c0.45,1.08,0.03,2.02-1.25,3.07
	c1.53,0.75,1.99,1.52,1.71,2.86c-0.22,1.05-1.11,1.73-2.57,1.81c-1.42,0.08-2.85,0.08-4.27,0.07c-0.21,0-0.42-0.22-0.63-0.34
	c0.17-0.13,0.37-0.23,0.51-0.38c0.2-0.23,0.52-0.49,0.53-0.74c0.04-2.14,0.04-4.27,0-6.41c-0.01-0.26-0.32-0.53-0.53-0.76
	c-0.16-0.18-0.38-0.3-0.58-0.44C29.97,108.45,30.01,108.37,30.05,108.28z M32.67,113.22c0,1.24,0,2.39,0,3.61
	c1.06,0.02,2.23,0.37,2.86-0.62c0.35-0.54,0.39-1.59,0.1-2.16C35.07,112.95,33.84,113.21,32.67,113.22z M32.7,109.01
	c0,1.17,0,2.29,0,3.45c1.03,0.02,2.15,0.31,2.67-0.71c0.29-0.57,0.31-1.57-0.01-2.1C34.79,108.73,33.69,108.94,32.7,109.01z"/>
<path d="M55.08,107.99c0,2.33-0.01,4.53,0,6.74c0.01,0.94-0.33,2.01,0.99,2.55c-0.07,0.12-0.13,0.23-0.2,0.35
	c-0.72-0.09-1.43-0.19-2.15-0.26c-0.15-0.02-0.31,0.03-0.46,0.07c-1.66,0.52-2.85,0.27-3.56-0.77c-0.72-1.04-0.68-3.25,0.07-4.28
	c0.83-1.13,2.04-1.44,3.63-0.92c0.09,0.03,0.2,0.03,0.36,0.05c0-0.62,0.08-1.24-0.03-1.82c-0.06-0.31-0.42-0.57-0.67-0.84
	c-0.12-0.13-0.28-0.23-0.43-0.35c0.18-0.13,0.34-0.34,0.53-0.37C53.76,108.05,54.37,108.04,55.08,107.99z M53.74,114.32
	c0-0.25-0.02-0.5,0-0.75c0.08-0.84-0.12-1.49-1.06-1.66c-0.93-0.17-1.63,0.3-1.78,1.12c-0.18,0.95-0.19,1.98-0.01,2.92
	c0.15,0.81,0.9,1.15,1.76,0.96c0.76-0.17,1.18-0.6,1.1-1.43C53.71,115.1,53.74,114.71,53.74,114.32z"/>
<path d="M68.75,117.27c0.34-0.19,0.69-0.37,1.1-0.59c0-1.42,0-2.91,0-4.49c-0.22-0.04-0.43-0.04-0.61-0.12
	c-0.16-0.07-0.29-0.23-0.44-0.35c0.15-0.12,0.28-0.32,0.44-0.34c0.6-0.08,1.2-0.11,1.87-0.16c0.07,0.29,0.13,0.55,0.2,0.84
	c0.1-0.05,0.19-0.09,0.28-0.13c0.58-0.23,1.14-0.61,1.74-0.67c1.62-0.15,2.29,0.52,2.31,2.15c0.01,0.5-0.01,1,0,1.5
	c0.02,0.9-0.33,1.92,0.85,2.56c-1.05,0-2.1,0-3.24,0c0.07-0.16,0.14-0.45,0.22-0.46c0.97-0.06,0.86-0.75,0.85-1.39
	c-0.01-0.68,0.02-1.36-0.01-2.03c-0.03-0.71,0.01-1.5-0.96-1.65c-0.69-0.11-1.87,0.62-1.97,1.37c-0.13,1.05-0.13,2.14-0.05,3.2
	c0.02,0.32,0.48,0.6,0.85,1.03c-1.28,0-2.32,0-3.36,0C68.81,117.44,68.78,117.35,68.75,117.27z"/>
<path d="M87.24,116.84c0.45-0.16,0.78-0.28,1.21-0.43c-0.55,1.48-1.6,1.69-2.67,0.76c-0.72,0.19-1.37,0.43-2.05,0.52
	c-0.86,0.11-1.48-0.3-1.63-1.17c-0.15-0.87,0.2-1.55,1.08-1.83c0.81-0.26,1.63-0.46,2.53-0.71c0-0.43,0.13-0.94-0.04-1.32
	c-0.14-0.33-0.58-0.67-0.94-0.74c-0.45-0.09-0.98-0.06-1.05,0.7c-0.03,0.34-0.41,0.65-0.68,0.94c-0.03,0.03-0.48-0.19-0.47-0.28
	c0.03-0.4,0.05-0.86,0.27-1.16c0.6-0.82,2.09-1.17,3.13-0.79c1.12,0.41,1.21,1.38,1.2,2.37c-0.01,0.71-0.09,1.42-0.09,2.13
	C87.05,116.15,87.17,116.48,87.24,116.84z M85.62,114.64c-0.62,0.2-1.21,0.29-1.67,0.58c-0.28,0.18-0.58,0.78-0.48,1
	c0.15,0.31,0.68,0.61,1.03,0.6C85.47,116.79,85.81,116.1,85.62,114.64z"/>
<path d="M64.74,111.22c1.8,0.01,2.98,1.28,2.95,3.19c-0.03,2.01-1.33,3.32-3.26,3.29c-1.75-0.02-2.87-1.24-2.88-3.13
	C61.54,112.57,62.83,111.21,64.74,111.22z M66.33,114.56c-0.21-0.73-0.3-1.42-0.59-2c-0.47-0.95-1.72-0.99-2.22-0.05
	c-0.67,1.25-0.73,2.6-0.08,3.89c0.46,0.91,1.64,0.98,2.17,0.11C65.97,115.92,66.1,115.2,66.33,114.56z"/>
<path d="M119.97,115.74c-0.14,0.94-0.7,1.59-1.61,1.84c-1.13,0.31-2.3,0.34-3.17-0.64c-1.03-1.17-0.96-2.57-0.52-3.93
	c0.34-1.06,1.15-1.67,2.3-1.8c2.01-0.22,3.16,0.92,2.95,3.1c-1.32,0-2.66,0-3.98,0c-0.13,1.5,0.35,2.54,1.34,2.46
	C118.16,116.7,119.02,116.12,119.97,115.74z M118.65,113.61c0.03-1.23-0.37-1.8-1.2-1.82c-0.91-0.02-1.43,0.6-1.5,1.82
	C116.82,113.61,117.69,113.61,118.65,113.61z"/>
<path d="M45.8,116.77c0.62,0.14,1.05,0.23,1.49,0.33c-0.01,0.1-0.02,0.2-0.03,0.3c-1.31,0-2.61,0-3.92,0
	c-0.03-0.05-0.06-0.1-0.1-0.15c0.33-0.16,0.65-0.33,1.07-0.54c0-1.43,0-2.95,0-4.49c-0.35-0.11-0.7-0.22-1.04-0.33
	c-0.01-0.13-0.02-0.25-0.03-0.38c0.77-0.11,1.54-0.23,2.38-0.35c0.06,0.37,0.1,0.64,0.15,0.94c0.1-0.06,0.19-0.1,0.27-0.15
	c0.45-0.24,0.91-0.69,1.34-0.67c0.36,0.02,0.77,0.53,1.02,0.92c0.07,0.11-0.35,0.53-0.55,0.81c-0.32-0.27-0.63-0.54-1.07-0.91
	C45.27,113.24,46.01,115.08,45.8,116.77z"/>
<path d="M111.11,111.22c0.05,0.32,0.09,0.56,0.14,0.88c0.22-0.21,0.37-0.48,0.57-0.52c0.51-0.11,1.07-0.24,1.55-0.11
	c0.21,0.06,0.32,0.71,0.34,1.11c0.01,0.13-0.52,0.46-0.6,0.4c-0.32-0.21-0.57-0.55-1.01-1.02c-0.28,0.68-0.61,1.42-0.88,2.19
	c-0.09,0.26-0.02,0.57-0.02,0.85c0,1.67,0,1.67,1.45,2.17c-0.28,0.42-2.53,0.58-4.04,0.19c0.51-0.27,0.83-0.43,1.24-0.65
	c0-1.41,0-2.89,0-4.45c-0.17-0.05-0.37-0.08-0.55-0.17c-0.17-0.08-0.3-0.23-0.45-0.34c0.18-0.13,0.34-0.34,0.53-0.37
	C109.93,111.28,110.47,111.27,111.11,111.22z"/>
<path d="M40.03,116.78c0-1.51,0-3,0-4.47c-0.08-0.06-0.12-0.12-0.18-0.15c-0.35-0.16-0.7-0.31-1.05-0.46
	c0.36-0.13,0.71-0.33,1.09-0.39c0.45-0.07,0.91-0.02,1.52-0.02c0,1.38,0.04,2.76-0.02,4.13c-0.04,0.9,0.05,1.62,1.2,1.92
	c-0.21,0.07-0.41,0.21-0.62,0.21c-0.85,0.02-1.71,0.02-2.56-0.01c-0.2-0.01-0.4-0.13-0.61-0.2c0.19-0.14,0.36-0.32,0.57-0.43
	C39.56,116.85,39.78,116.84,40.03,116.78z"/>
<path d="M107.1,111.23c0,1.93,0,3.74,0,5.51c0.43,0.18,0.77,0.31,1.11,0.45c-0.01,0.09-0.01,0.17-0.02,0.26c-1.15,0-2.31,0-3.61,0
	c0.11-0.14,0.24-0.46,0.39-0.47c0.81-0.04,0.89-0.52,0.87-1.17c-0.03-0.82-0.02-1.64,0-2.46c0.01-0.67,0.06-1.33-0.93-1.3
	c-0.1,0-0.22-0.2-0.32-0.31c0.14-0.12,0.27-0.32,0.42-0.34C105.66,111.31,106.33,111.28,107.1,111.23z"/>
<path d="M41.91,109.51c-0.61,0.43-0.92,0.78-1.29,0.87c-0.2,0.05-0.5-0.33-0.76-0.52c0.27-0.31,0.49-0.73,0.84-0.89
	C40.9,108.88,41.29,109.21,41.91,109.51z"/>
<path d="M106.41,108.61c0.35,0.44,0.75,0.8,0.7,0.9c-0.19,0.35-0.55,0.61-0.84,0.9c-0.22-0.22-0.65-0.49-0.61-0.66
	C105.73,109.41,106.05,109.12,106.41,108.61z"/>
</svg>
